<mxfile host="app.diagrams.net" agent="Mozilla/5.0 (Windows NT 10.0; Win64; x64) AppleWebKit/537.36 (KHTML, like Gecko) Chrome/131.0.0.0 Safari/537.36 Edg/131.0.0.0" version="25.0.1">
  <diagram name="Page-1" id="YyBmE4NZ7pk9dEjyzskX">
    <mxGraphModel dx="922" dy="751" grid="1" gridSize="10" guides="1" tooltips="1" connect="1" arrows="1" fold="1" page="1" pageScale="1" pageWidth="827" pageHeight="1169" math="0" shadow="0">
      <root>
        <mxCell id="0" />
        <mxCell id="1" parent="0" />
        <mxCell id="KWPogr4B-mrXsmfxD0D3-8" style="edgeStyle=orthogonalEdgeStyle;rounded=0;orthogonalLoop=1;jettySize=auto;html=1;entryX=0.25;entryY=1;entryDx=0;entryDy=0;" edge="1" parent="1" source="KWPogr4B-mrXsmfxD0D3-1" target="KWPogr4B-mrXsmfxD0D3-4">
          <mxGeometry relative="1" as="geometry" />
        </mxCell>
        <mxCell id="KWPogr4B-mrXsmfxD0D3-1" value="Actor" style="shape=umlActor;verticalLabelPosition=bottom;verticalAlign=top;html=1;outlineConnect=0;" vertex="1" parent="1">
          <mxGeometry x="80" y="370" width="30" height="60" as="geometry" />
        </mxCell>
        <mxCell id="KWPogr4B-mrXsmfxD0D3-3" value="SOCIAPP" style="swimlane;whiteSpace=wrap;html=1;" vertex="1" parent="1">
          <mxGeometry x="510" y="360" width="120" height="130" as="geometry" />
        </mxCell>
        <mxCell id="KWPogr4B-mrXsmfxD0D3-4" value="Front" style="whiteSpace=wrap;html=1;aspect=fixed;" vertex="1" parent="1">
          <mxGeometry x="190" y="250" width="80" height="80" as="geometry" />
        </mxCell>
        <mxCell id="KWPogr4B-mrXsmfxD0D3-5" value="BD" style="shape=cylinder3;whiteSpace=wrap;html=1;boundedLbl=1;backgroundOutline=1;size=15;" vertex="1" parent="1">
          <mxGeometry x="400" y="680" width="60" height="60" as="geometry" />
        </mxCell>
        <mxCell id="KWPogr4B-mrXsmfxD0D3-13" style="edgeStyle=orthogonalEdgeStyle;rounded=0;orthogonalLoop=1;jettySize=auto;html=1;exitX=1;exitY=0.5;exitDx=0;exitDy=0;entryX=0.5;entryY=0;entryDx=0;entryDy=0;" edge="1" parent="1" source="KWPogr4B-mrXsmfxD0D3-6" target="KWPogr4B-mrXsmfxD0D3-12">
          <mxGeometry relative="1" as="geometry" />
        </mxCell>
        <mxCell id="KWPogr4B-mrXsmfxD0D3-21" value="3" style="edgeLabel;html=1;align=center;verticalAlign=middle;resizable=0;points=[];" vertex="1" connectable="0" parent="KWPogr4B-mrXsmfxD0D3-13">
          <mxGeometry x="0.196" y="-2" relative="1" as="geometry">
            <mxPoint as="offset" />
          </mxGeometry>
        </mxCell>
        <mxCell id="KWPogr4B-mrXsmfxD0D3-18" style="edgeStyle=orthogonalEdgeStyle;rounded=0;orthogonalLoop=1;jettySize=auto;html=1;entryX=0;entryY=0.5;entryDx=0;entryDy=0;" edge="1" parent="1" source="KWPogr4B-mrXsmfxD0D3-6" target="KWPogr4B-mrXsmfxD0D3-3">
          <mxGeometry relative="1" as="geometry">
            <Array as="points">
              <mxPoint x="450" y="400" />
              <mxPoint x="450" y="425" />
            </Array>
          </mxGeometry>
        </mxCell>
        <mxCell id="KWPogr4B-mrXsmfxD0D3-25" value="7" style="edgeLabel;html=1;align=center;verticalAlign=middle;resizable=0;points=[];" vertex="1" connectable="0" parent="KWPogr4B-mrXsmfxD0D3-18">
          <mxGeometry x="0.3037" y="1" relative="1" as="geometry">
            <mxPoint as="offset" />
          </mxGeometry>
        </mxCell>
        <mxCell id="KWPogr4B-mrXsmfxD0D3-6" value="Controller" style="rounded=0;whiteSpace=wrap;html=1;" vertex="1" parent="1">
          <mxGeometry x="320" y="380" width="80" height="80" as="geometry" />
        </mxCell>
        <mxCell id="KWPogr4B-mrXsmfxD0D3-7" value="" style="endArrow=classic;html=1;rounded=0;exitX=1.013;exitY=0.85;exitDx=0;exitDy=0;exitPerimeter=0;" edge="1" parent="1" source="KWPogr4B-mrXsmfxD0D3-4" target="KWPogr4B-mrXsmfxD0D3-6">
          <mxGeometry width="50" height="50" relative="1" as="geometry">
            <mxPoint x="390" y="490" as="sourcePoint" />
            <mxPoint x="440" y="440" as="targetPoint" />
            <Array as="points">
              <mxPoint x="360" y="318" />
            </Array>
          </mxGeometry>
        </mxCell>
        <mxCell id="KWPogr4B-mrXsmfxD0D3-20" value="2" style="edgeLabel;html=1;align=center;verticalAlign=middle;resizable=0;points=[];" vertex="1" connectable="0" parent="KWPogr4B-mrXsmfxD0D3-7">
          <mxGeometry x="-0.6759" relative="1" as="geometry">
            <mxPoint as="offset" />
          </mxGeometry>
        </mxCell>
        <mxCell id="KWPogr4B-mrXsmfxD0D3-11" style="edgeStyle=orthogonalEdgeStyle;rounded=0;orthogonalLoop=1;jettySize=auto;html=1;exitX=1;exitY=0.5;exitDx=0;exitDy=0;" edge="1" parent="1" source="KWPogr4B-mrXsmfxD0D3-6">
          <mxGeometry relative="1" as="geometry">
            <mxPoint x="400" y="420" as="targetPoint" />
            <Array as="points">
              <mxPoint x="400" y="420" />
              <mxPoint x="400" y="420" />
            </Array>
          </mxGeometry>
        </mxCell>
        <mxCell id="KWPogr4B-mrXsmfxD0D3-14" style="edgeStyle=orthogonalEdgeStyle;rounded=0;orthogonalLoop=1;jettySize=auto;html=1;exitX=1;exitY=0.5;exitDx=0;exitDy=0;" edge="1" parent="1" source="KWPogr4B-mrXsmfxD0D3-12" target="KWPogr4B-mrXsmfxD0D3-5">
          <mxGeometry relative="1" as="geometry" />
        </mxCell>
        <mxCell id="KWPogr4B-mrXsmfxD0D3-22" value="4" style="edgeLabel;html=1;align=center;verticalAlign=middle;resizable=0;points=[];" vertex="1" connectable="0" parent="KWPogr4B-mrXsmfxD0D3-14">
          <mxGeometry x="-0.298" y="2" relative="1" as="geometry">
            <mxPoint as="offset" />
          </mxGeometry>
        </mxCell>
        <mxCell id="KWPogr4B-mrXsmfxD0D3-16" style="edgeStyle=orthogonalEdgeStyle;rounded=0;orthogonalLoop=1;jettySize=auto;html=1;" edge="1" parent="1" source="KWPogr4B-mrXsmfxD0D3-12" target="KWPogr4B-mrXsmfxD0D3-6">
          <mxGeometry relative="1" as="geometry">
            <Array as="points">
              <mxPoint x="290" y="420" />
            </Array>
          </mxGeometry>
        </mxCell>
        <mxCell id="KWPogr4B-mrXsmfxD0D3-24" value="6" style="edgeLabel;html=1;align=center;verticalAlign=middle;resizable=0;points=[];" vertex="1" connectable="0" parent="KWPogr4B-mrXsmfxD0D3-16">
          <mxGeometry x="0.2017" y="2" relative="1" as="geometry">
            <mxPoint as="offset" />
          </mxGeometry>
        </mxCell>
        <mxCell id="KWPogr4B-mrXsmfxD0D3-12" value="Service" style="rounded=0;whiteSpace=wrap;html=1;" vertex="1" parent="1">
          <mxGeometry x="240" y="590" width="70" height="80" as="geometry" />
        </mxCell>
        <mxCell id="KWPogr4B-mrXsmfxD0D3-15" style="edgeStyle=orthogonalEdgeStyle;rounded=0;orthogonalLoop=1;jettySize=auto;html=1;entryX=0.09;entryY=0.998;entryDx=0;entryDy=0;entryPerimeter=0;" edge="1" parent="1" source="KWPogr4B-mrXsmfxD0D3-5" target="KWPogr4B-mrXsmfxD0D3-12">
          <mxGeometry relative="1" as="geometry" />
        </mxCell>
        <mxCell id="KWPogr4B-mrXsmfxD0D3-23" value="5" style="edgeLabel;html=1;align=center;verticalAlign=middle;resizable=0;points=[];" vertex="1" connectable="0" parent="KWPogr4B-mrXsmfxD0D3-15">
          <mxGeometry x="-0.2657" y="-3" relative="1" as="geometry">
            <mxPoint as="offset" />
          </mxGeometry>
        </mxCell>
        <mxCell id="KWPogr4B-mrXsmfxD0D3-19" value="1" style="text;html=1;align=center;verticalAlign=middle;resizable=0;points=[];autosize=1;strokeColor=none;fillColor=none;" vertex="1" parent="1">
          <mxGeometry x="155" y="378" width="30" height="30" as="geometry" />
        </mxCell>
      </root>
    </mxGraphModel>
  </diagram>
</mxfile>
